<?xml version="1.0" standalone="no"?><svg xmlns="http://www.w3.org/2000/svg" viewBox="0 0 1440 320"><path fill="#fdc57b" fill-opacity="1" d="M0,96L18.5,112C36.9,128,74,160,111,165.3C147.7,171,185,149,222,144C258.5,139,295,149,332,160C369.2,171,406,181,443,165.3C480,149,517,107,554,90.7C590.8,75,628,85,665,106.7C701.5,128,738,160,775,160C812.3,160,849,128,886,128C923.1,128,960,160,997,149.3C1033.8,139,1071,85,1108,90.7C1144.6,96,1182,160,1218,181.3C1255.4,203,1292,181,1329,186.7C1366.2,192,1403,224,1422,240L1440,256L1440,320L1421.5,320C1403.1,320,1366,320,1329,320C1292.3,320,1255,320,1218,320C1181.5,320,1145,320,1108,320C1070.8,320,1034,320,997,320C960,320,923,320,886,320C849.2,320,812,320,775,320C738.5,320,702,320,665,320C627.7,320,591,320,554,320C516.9,320,480,320,443,320C406.2,320,369,320,332,320C295.4,320,258,320,222,320C184.6,320,148,320,111,320C73.8,320,37,320,18,320L0,320Z"></path></svg>