<?xml version="1.0" standalone="no"?><svg xmlns="http://www.w3.org/2000/svg" viewBox="0 0 1440 320"><path fill="#394a51" fill-opacity="1" d="M0,192L26.7,197.3C53.3,203,107,213,160,186.7C213.3,160,267,96,320,80C373.3,64,427,96,480,90.7C533.3,85,587,43,640,32C693.3,21,747,43,800,85.3C853.3,128,907,192,960,213.3C1013.3,235,1067,213,1120,202.7C1173.3,192,1227,192,1280,176C1333.3,160,1387,128,1413,112L1440,96L1440,320L1413.3,320C1386.7,320,1333,320,1280,320C1226.7,320,1173,320,1120,320C1066.7,320,1013,320,960,320C906.7,320,853,320,800,320C746.7,320,693,320,640,320C586.7,320,533,320,480,320C426.7,320,373,320,320,320C266.7,320,213,320,160,320C106.7,320,53,320,27,320L0,320Z"></path></svg>